<svg width="15" height="15" viewBox="0 0 20 20" fill="none" xmlns="http://www.w3.org/2000/svg">
<path d="M5.34173 18.2795C7.29143 19.3765 9.56831 19.7514 11.7708 19.3335C14.0447 18.9021 16.0828 17.6554 17.5026 15.8276C18.9223 13.9998 19.626 11.7165 19.4814 9.40663C19.3369 7.09671 18.354 4.91902 16.7175 3.28248C15.0809 1.64593 12.9032 0.663105 10.5933 0.518557C8.28342 0.374008 6.00018 1.07768 4.17237 2.49744C2.34456 3.91719 1.09791 5.95537 0.666511 8.22924C0.248655 10.4317 0.623506 12.7086 1.7205 14.6583L0.890286 17.564C0.829028 17.7784 0.826219 18.0053 0.88215 18.2211C0.938081 18.437 1.05072 18.6339 1.20838 18.7916L1.56123 18.4388L1.20839 18.7916C1.36605 18.9493 1.56302 19.0619 1.77887 19.1178C1.99471 19.1738 2.22158 19.171 2.43598 19.1097L5.34173 18.2795Z" fill="white" stroke="#455564" stroke-linecap="round" stroke-linejoin="round"/>
<path d="M10 15.7683C10.6213 15.7683 11.125 15.2646 11.125 14.6433C11.125 14.022 10.6213 13.5183 10 13.5183C9.37868 13.5183 8.875 14.022 8.875 14.6433C8.875 15.2646 9.37868 15.7683 10 15.7683Z" fill="#455564"/>
<path d="M10 11.2688V10.5188C10.5192 10.5188 11.0267 10.3648 11.4584 10.0764C11.8901 9.78797 12.2265 9.378 12.4252 8.89834C12.6239 8.41869 12.6758 7.89089 12.5746 7.38169C12.4733 6.87249 12.2233 6.40476 11.8562 6.03764C11.489 5.67053 11.0213 5.42052 10.5121 5.31924C10.0029 5.21795 9.47511 5.26994 8.99546 5.46862C8.5158 5.6673 8.10583 6.00375 7.81739 6.43543C7.52895 6.86711 7.375 7.37462 7.375 7.8938" stroke="#455564" stroke-width="1.5" stroke-linecap="round" stroke-linejoin="round"/>
</svg>
